<svg xmlns="http://www.w3.org/2000/svg" xml:space="preserve" width="2000" height="552" data-id="lg_4LmFuIza8dL5HGTZAu" data-version="1" viewBox="0 0 2000 552"><g data-padding="20"><g transform="translate(10 9.946)scale(.96396)"><path fill="#d6b76f" fill-rule="evenodd" d="m1304.37 186.695-.776 18.614c-2.216 45.927-21.162 83.82-54.735 114.678a393.3 393.3 0 0 1-94.18 63.877c-45.317 22.215-90.634 44.486-136.284 65.926a548.5 548.5 0 0 0-104.817 62.768c-15.235 11.301-26.87 24.93-38.558 39.445q1.994-3.712 4.155-7.313c15.955-24.265 37.118-43.378 59.832-60.94 32.852-25.373 69.028-45.373 105.37-65.04 40.443-21.883 81.77-42.325 121.05-66.037 33.96-20.498 65.372-44.874 88.14-78.501 14.516-21.44 19.834-45.373 19.779-70.746a166.2 166.2 0 0 0-19.944-81.992c-23.822-43.434-61.328-65.04-110.246-67.367-17.673-.83-34.68 2.216-50.746 9.75q-.554.444-1.607-.553c4.764-1.828 9.418-3.823 14.293-5.374 4.82-1.551 9.806-2.66 14.626-4.21a101.94 101.94 0 0 0-69.86 40.885c-12.188 16.01-22.16 33.738-33.073 50.69l-3.214 5.153c-2.16-7.978-3.878-15.013-5.927-21.938-3.324-11.136-5.817-22.714-10.526-33.24-16.288-35.733-45.428-53.794-83.654-56.453-50.968-3.49-89.305 18.448-115.232 61.937-14.626 24.432-22.271 50.968-19.944 79.72 1.662 20.887 9.86 39.612 20.33 57.506 15.347 26.204 34.46 49.75 53.075 73.682a377 377 0 0 1 20.608 28.974q-.554-.11-.886-.388c-18.614-24.265-37.45-48.42-55.843-72.906a227.1 227.1 0 0 1-33.074-58.613c-9.53-26.703-8.42-53.35.499-79.942l2.99-8.864c0-.167-.276-.499-1.661-1.108-2.88 10.027-6.26 19.944-8.476 30.082-7.48 34.237 1.496 65.372 19.39 94.346 8.2 13.296 17.617 25.927 25.816 37.894.11 2.659-.443 4.764.333 6.094a116 116 0 0 0 8.753 13.019q7.978 9.972 16.398 19.667c4.432 5.207 9.308 10.082 13.684 15.345 1.995 2.438 3.324 5.485 4.488 8.643l-23.878-26.98c-9.418-10.581-19.224-20.886-28.254-31.8a310.2 310.2 0 0 1-37.561-54.292 136.28 136.28 0 0 1-10.25-104.872 177.3 177.3 0 0 1 36.343-68.696q.444-.554.887-1.33l-.942-.72c-4.82 5.928-9.917 11.69-14.404 17.895a205 205 0 0 0-21.052 39.334 132.96 132.96 0 0 0-8.864 77.283c1.108 6.87 3.324 13.573 5.097 20.331l.11-.11c-1.938-5.485-4.431-10.803-5.595-16.399-7.091-32.298-1.662-63.322 11.468-93.127 11.357-25.706 26.315-48.53 50.192-64.597a149.58 149.58 0 0 1 89.86-25.816c24.985.665 48.862 5.983 69.803 20.11 9.529 6.427 17.617 15.069 26.37 22.714 1.386 1.274 2.77 2.604 4.543 3.49a83.1 83.1 0 0 0-21.661-23.6C955.904 9.36 920.836 1.437 882.998 6.977c-59.777 8.864-98.28 44.543-120.496 99.166a151.8 151.8 0 0 0-10.582 75.344c.222 1.773-.11 3.657-.221 5.485l-2.05-19.5c.166-1.386.498-2.77.443-4.1q-.166-34.847 13.573-66.647c18.615-43.544 49.307-74.457 95.067-89.083 6.925-2.216 14.017-3.878 21.052-5.706l18.56-1.939 13.462.61c46.314 2.659 83.709 21.273 109.138 61.161q2.382 3.546 4.764 7.368a133 133 0 0 1 34.07-28.642 144.04 144.04 0 0 1 101.77-18.559c67.31 11.856 112.463 50.027 133.736 115.454 2.715 8.31 4.432 16.786 6.593 25.207Zm-507.796 68.696c-5.32-10.304-10.97-20.498-16.011-30.913a127.4 127.4 0 0 1-13.13-53.461 149.6 149.6 0 0 1 17.45-69.804c.555-1.164.998-2.382 1.94-4.598-9.861 9.085-20.498 43.322-21.107 68.973-.887 33.683 12.188 62.879 30.858 89.803m174.51-197.778c-24.93-27.035-99.111-30.58-127.531-6.205 43.766-20.553 86.313-21.052 127.53 6.205"/><path fill="#d6b76f" fill-rule="evenodd" d="m761.838 210.074 8.088 18.725-1.274.499-6.76-19.39Z"/><rect width="615.848" height="180.444" x="748.065" y="-90.039" fill="none" rx="0" ry="0" transform="matrix(.71 0 0 .71 276.73 213.98)"/><path fill="#d6b76f" d="M834.422 259.9q-.45 0-.73-.39-.28-.4.06-.96.79-1.25 2.2-3.73 1.41-2.49 3.45-5.66-1.92.91-4.3 1.76-2.37.84-4.07 1.24-1.69.39-1.58-.06.56-1.92 2.03-7.4 1.47-5.49 3.28-13.18t3.28-16.34 1.92-16.79q.12-.9.12-1.75V195q0-8.37-2.49-13-2.49-4.64-6.33-4.64-3.51 0-7.52 4.01-4.02 4.02-7.86 12.61-2.26 5.2-3.45 10.97t-.73 11.19v.23q0 .79-.34 1.07-.34.29-.68-.5-.68-1.47-1.02-3.74-.34-2.26-.34-4.86 0-4.63 1.02-9.72t2.83-8.71q2.37-4.41 5.99-7.91 3.62-3.51 7.8-5.54 4.18-2.04 8.25-2.04 4.41 0 8.2 2.94t5.6 9.95q.9 3.28 1.36 6.95.45 3.68.45 7.98 0 7.69-1.58 17.35-1.59 9.67-4.87 21.77 4.07-6.11 9.05-13.23t10.63-14.42q5.65-7.29 11.53-13.96t11.76-12.1 11.31-8.59q2.94-1.7 6.61-3.06 3.68-1.35 6.73-1.35 3.39 0 4.86 1.92.23.45.23.56 0 .46-.56.46-.57 0-1.14-.12-5.08-.34-11.53 3.28-6.44 3.62-13.51 9.95-7.07 6.34-14.25 14.31t-13.79 16.34q-6.62 8.36-12.16 16-5.54 7.63-9.33 13.4-3.79 5.76-5.26 8.48-.34.67-1.13.67"/><path fill="#d6b76f" d="M876.382 206.99q-.67 0-1.13-.46-2.03-1.35-3.33-3.78-1.3-2.44-1.3-5.26 0-2.83 1.58-5.66 1.58-2.82 5.31-4.97 6-3.51 13.97-5.94t16.4-3.79q8.42-1.35 15.88-1.35 2.94 0 6.96.56 4.01.57 7.8 2.04t6.27 4.01q2.49 2.55 2.49 6.5v.85q0 .4-.11.85 0 1.02-.57 1.02-.34 0-.34-.57 0-.34.06-.68t.06-.67q0-3.28-4.92-4.75t-12.38-1.47q-6.45 0-14.02.96-7.58.96-14.99 2.65-7.4 1.7-13.51 3.91-6.11 2.2-9.78 4.86-3.68 2.65-3.68 5.48 0 2.6 3.62 5.09.23.11.23.34t-.57.23m9.39 58.57q-.57 0-.57-1.25 0-1.13.68-3.16.79-2.15 2.32-5.32 1.53-3.16 3.68-7.12-2.83.23-5.43.74-2.6.5-4.98 1.18-2.71.68-5.71 1.98-2.99 1.3-5.76 2.38-2.77 1.07-4.81 1.07-1.47 0-2.15-.57-.79-.56-.79-2.48 0-1.7 1.3-4.02t4.75-4.58 10.01-3.84q2.48-.68 6.05-1.02 3.56-.34 7.74-.34h2.55q1.3 0 2.54.11 4.07-7.01 8.76-14.53 4.7-7.51 9.33-14.64 4.64-7.12 8.54-12.83t6.44-9.05q2.55-3.33 3.11-3.33h1.02q1.02 0 1.02.67 0 .68-1.24 2.27-5.09 6.67-11.09 15.37-5.99 8.71-11.98 18.1-5.99 9.38-11.2 18.2 6.45.57 12.22 2.43 5.76 1.87 9.44 5.26 3.67 3.39 3.67 8.71 0 3.05-.9 3.05-.57 0-.34-1.13.68-2.94-2.83-5.03-3.5-2.09-9.5-3.23-5.99-1.13-12.89-1.13h-2.03q-1.02 0-2.04.12-2.49 4.52-4.58 8.53-2.09 4.02-3.33 7.18-.57 1.25-1.02 1.25"/><path fill="#d6b76f" d="M949.662 253.8q-7.01 0-12.33-1.47-5.31-1.47-7.57-3.28-5.66-4.41-5.66-10.18 0-4.86 4.24-9.78t12.95-9.04q8.71-4.13 21.94-6.51 5.65-1.01 11.47-1.58 5.83-.56 11.71-.56 4.97 0 10 .45t9.9 1.47q1.58.34 3.62.85 2.03.5 4.18 1.18 9.38-9.61 18.32-19.11 8.93-9.49 17.3-16.05 5.88-4.64 10.97-6.34 5.08-1.69 9.04-1.69 4.64 0 7.63 1.41 3 1.42 3.91 2.32.33.34 0 .68-.34.34-.68 0-.57-.68-2.72-1.47t-5.54-.79q-4.18 0-9.84 1.92-5.65 1.92-12.55 7.24-8.48 6.67-16.79 15.32t-16.9 17.35q4.41 1.59 8.08 4.3 3.68 2.72 4.24 6.67v.46q0 .45-.22.45-.34 0-.68-.68-.45-1.24-2.55-2.15-2.09-.9-4.8-1.47-2.72-.56-5.2-.9-2.49-.34-3.73-.46l-1.25-.11q-9.38 9.05-19.39 16.68t-21.2 11.48q-5.32 1.81-10.35 2.6t-9.55.79m87.4 5.54q-5.09-3.62-7.46-8.71t-2.37-10.97 2.03-11.76q2.04-5.99 5.94-12.43 3.9-6.45 8.53-12.61 4.64-6.16 8.99-11.31 4.36-5.14 7.35-8.54 3-3.39 3.57-4.18.67-.9 1.01-.9.46 0 .68.73.23.74.23 1.64 0 1.81-.57 2.6-2.94 3.73-7.01 9.5t-8.25 12.83q-4.19 7.07-7.8 14.53-3.62 7.47-5.83 14.59-2.2 7.12-2.2 13 0 3.4.9 6.22.91 2.83 2.94 4.98.11.11.11.34 0 .22-.22.45-.23.23-.57 0m-87.06-7.46q4.18 0 9.04-.74 4.86-.73 10.07-2.32 9.72-3.05 19.33-10.4t18.88-16.4q-1.47-.11-2.94-.11h-3.05q-7.91 0-16.45.79t-16.23 2.26q-12.44 2.15-20.29 5.38-7.86 3.22-11.54 6.72-3.67 3.51-3.67 6.67 0 3.06 3.05 5.32 1.58 1.13 5.2 1.98t8.6.85"/><path fill="#d6b76f" d="M1034.002 265.57q-.45 0-.45-1.13 0-.57.11-1.36t.57-1.92q1.01-2.94 3.61-7.97 2.61-5.04 6.17-11.31 3.56-6.28 7.74-13.06 4.19-6.79 8.48-13.46 4.3-6.67 8.2-12.49t6.96-10.12q3.05-4.3 4.74-6.33 1.93-5.77 4.19-9.16 2.26-3.4 4.63-3.4 1.81 0 3.96.74 2.15.73 3.73 1.81 1.59 1.07 1.59 2.32 0 1.01-.91 1.58-2.6 2.15-4.58 6.45-1.98 4.29-3.33 9.89-1.36 5.6-2.04 11.87-.68 6.28-.68 12.38 0 6.68.79 12.67.8 5.99 2.49 10.06 1.36-3.62 4.07-8.99 2.72-5.37 6.22-11.76 3.51-6.39 7.35-13 3.85-6.62 7.52-12.67 3.68-6.04 6.79-10.85 3.1-4.81 5.2-7.63 2.09-2.83 2.54-2.83.34 0 1.19-.17t1.64-.17q1.69 0 1.69.91 0 .79-.79 1.69-5.76 7.58-11.98 16.68t-12.05 18.49q-5.82 9.38-10.57 17.86t-7.69 14.93l.34.56q1.47 2.49 3.62 3.91 2.15 1.41 3.96 1.41 1.24 0 2.26-.68.11 0 .17-.06l.06-.05q.45 0 .56.51t-.23.73q-2.6 1.81-5.76 1.81-2.6 0-5.2-1.47t-4.75-4.3q-5.43-7.35-7.69-16.73-2.26-9.39-2.26-18.77 0-5.09.56-9.95.57-4.86 1.47-9.27-4.75 6.44-9.89 14.07-5.15 7.64-10.24 15.66-5.08 8.03-9.61 15.67-4.52 7.63-8.02 14.07-3.51 6.45-5.43 11.08-.57 1.25-1.02 1.25"/><path fill="#d6b76f" d="M1129.332 253.8q-7.01 0-12.32-1.47-5.32-1.47-7.58-3.28-5.65-4.41-5.65-10.18 0-4.86 4.24-9.78t12.94-9.04q8.71-4.13 21.94-6.51 5.65-1.01 11.48-1.58 5.82-.56 11.7-.56 4.98 0 10.01.45t9.89 1.47q1.59.34 3.62.85 2.04.5 4.18 1.18 9.39-9.61 18.32-19.11 8.94-9.49 17.3-16.05 5.88-4.64 10.97-6.34 5.09-1.69 9.05-1.69 4.63 0 7.63 1.41 3 1.42 3.9 2.32.34.34 0 .68t-.68 0q-.56-.68-2.71-1.47t-5.54-.79q-4.19 0-9.84 1.92t-12.55 7.24q-8.48 6.67-16.79 15.32t-16.91 17.35q4.41 1.59 8.09 4.3 3.67 2.72 4.24 6.67v.46q0 .45-.23.45-.34 0-.68-.68-.45-1.24-2.54-2.15-2.09-.9-4.81-1.47-2.71-.56-5.2-.9t-3.73-.46l-1.24-.11q-9.39 9.05-19.4 16.68-10 7.63-21.2 11.48-5.31 1.81-10.34 2.6-5.04.79-9.56.79m87.41 5.54q-5.09-3.62-7.46-8.71-2.38-5.09-2.38-10.97t2.04-11.76q2.03-5.99 5.93-12.43 3.9-6.45 8.54-12.61t8.99-11.31q4.35-5.14 7.35-8.54 3-3.39 3.56-4.18.68-.9 1.02-.9.45 0 .68.73.22.74.22 1.64 0 1.81-.56 2.6-2.94 3.73-7.01 9.5t-8.26 12.83q-4.18 7.07-7.8 14.53-3.62 7.47-5.82 14.59-2.21 7.12-2.21 13 0 3.4.91 6.22.9 2.83 2.94 4.98.11.11.11.34 0 .22-.23.45-.22.23-.56 0m-87.07-7.46q4.18 0 9.05-.74 4.86-.73 10.06-2.32 9.72-3.05 19.34-10.4 9.61-7.35 18.88-16.4-1.47-.11-2.94-.11h-3.05q-7.92 0-16.46.79-8.53.79-16.22 2.26-12.44 2.15-20.3 5.38-7.86 3.22-11.53 6.72-3.68 3.51-3.68 6.67 0 3.06 3.06 5.32 1.58 1.13 5.2 1.98t8.59.85"/></g><path fill="transparent" stroke="transparent" d="M722.5 0h555v552h-555z"/></g></svg>